G04*
G04 #@! TF.GenerationSoftware,Altium Limited,Altium Designer,19.0.15 (446)*
G04*
G04 Layer_Color=8388736*
%FSLAX25Y25*%
%MOIN*%
G70*
G01*
G75*
%ADD15C,0.06299*%
%ADD16C,0.17623*%
%ADD17C,0.15380*%
%ADD18R,0.15380X0.15380*%
%ADD19C,0.06800*%
%ADD20C,0.07200*%
%ADD21R,0.07200X0.07200*%
%ADD22C,0.06500*%
%ADD23C,0.03162*%
D15*
X274449Y20000D02*
G03*
X274449Y20000I-9449J0D01*
G01*
X29449Y165000D02*
G03*
X29449Y165000I-9449J0D01*
G01*
Y20000D02*
G03*
X29449Y20000I-9449J0D01*
G01*
X274449Y165000D02*
G03*
X274449Y165000I-9449J0D01*
G01*
D16*
X265000Y20000D02*
D03*
X20000Y165000D02*
D03*
Y20000D02*
D03*
X265000Y165000D02*
D03*
D17*
X230583Y95787D02*
D03*
X201055Y145000D02*
D03*
X171528Y95787D02*
D03*
X142000Y145000D02*
D03*
X112472Y95787D02*
D03*
X82945Y145000D02*
D03*
D18*
X53417Y95787D02*
D03*
D19*
X18000Y101000D02*
D03*
Y91000D02*
D03*
Y68000D02*
D03*
Y58000D02*
D03*
D20*
X258000Y139000D02*
D03*
Y129000D02*
D03*
Y119000D02*
D03*
Y109000D02*
D03*
Y89000D02*
D03*
Y99000D02*
D03*
D21*
Y79000D02*
D03*
D22*
X25000Y113000D02*
D03*
Y143000D02*
D03*
X12000Y113000D02*
D03*
Y143000D02*
D03*
D23*
X256339Y20000D02*
D03*
X258875Y13875D02*
D03*
X265000Y11339D02*
D03*
X271125Y13875D02*
D03*
X273661Y20000D02*
D03*
X271125Y26125D02*
D03*
X265000Y28661D02*
D03*
X258875Y26125D02*
D03*
X26125Y158876D02*
D03*
X20000Y156339D02*
D03*
X13875Y158876D02*
D03*
X11339Y165000D02*
D03*
X13875Y171124D02*
D03*
X20000Y173661D02*
D03*
X26125Y171124D02*
D03*
X28661Y165000D02*
D03*
X20000Y28661D02*
D03*
X13875Y26125D02*
D03*
X11339Y20000D02*
D03*
X13875Y13875D02*
D03*
X20000Y11339D02*
D03*
X26125Y13875D02*
D03*
X28661Y20000D02*
D03*
X26125Y26125D02*
D03*
X271125Y171124D02*
D03*
X273661Y165000D02*
D03*
X271125Y158876D02*
D03*
X265000Y156339D02*
D03*
X258875Y158876D02*
D03*
X256339Y165000D02*
D03*
X258875Y171124D02*
D03*
X265000Y173661D02*
D03*
M02*
