M48
;Layer_Color=9474304
;FILE_FORMAT=2:5
INCH,LZ
;TYPE=PLATED
T1F00S00C0.01181
T2F00S00C0.03500
T3F00S00C0.03800
T4F00S00C0.04000
T5F00S00C0.07874
T6F00S00C0.13386
%
T01
X0013875Y0013875
X0011339Y002
X0013875Y0026125
X002Y0011339
X0026125Y0013875
X0028661Y002
X0026125Y0026125
X0258875
X0256339Y002
X0258875Y0013875
X0265Y0011339
X0271125Y0013875
X0273661Y002
X0271125Y0026125
X0265Y0028661
Y0156339
X0271125Y0158876
X0273661Y0165
X0271125Y0171124
X0265Y0173661
X0258875Y0171124
X0256339Y0165
X0258875Y0158876
X0026125
X0028661Y0165
X0026125Y0171124
X002Y0173661
X0013875Y0171124
X0011339Y0165
X0013875Y0158876
X002Y0156339
Y0028661
T02
X0025Y0113
Y0143
X0012
Y0113
T03
X0018Y0058
Y0068
Y0091
Y0101
T04
X0258Y0079
Y0089
Y0099
Y0109
Y0119
Y0129
Y0139
T05
X0230583Y0095787
X0201055Y0145
X0142
X0082945
X0112472Y0095787
X0171528
X0053417
T06
X002Y002
X0265
Y0165
X002
M30
