G04*
G04 #@! TF.GenerationSoftware,Altium Limited,Altium Designer,19.0.15 (446)*
G04*
G04 Layer_Color=48318*
%FSLAX25Y25*%
%MOIN*%
G70*
G01*
G75*
%ADD35C,0.01800*%
D35*
X176238Y177615D02*
Y172616D01*
X173739Y170117D01*
X171240Y172616D01*
Y177615D01*
X164992Y170117D02*
Y177615D01*
X168741Y173866D01*
X163742D01*
X161243Y176365D02*
X159994Y177615D01*
X157494D01*
X156245Y176365D01*
Y171367D01*
X157494Y170117D01*
X159994D01*
X161243Y171367D01*
Y176365D01*
X146248Y177615D02*
X141250D01*
X143749D01*
Y170117D01*
X133752Y177615D02*
X138750D01*
Y170117D01*
X133752D01*
X138750Y173866D02*
X136251D01*
X126254Y176365D02*
X127504Y177615D01*
X130003D01*
X131253Y176365D01*
Y175116D01*
X130003Y173866D01*
X127504D01*
X126254Y172616D01*
Y171367D01*
X127504Y170117D01*
X130003D01*
X131253Y171367D01*
X123755Y177615D02*
X118757D01*
X121256D01*
Y170117D01*
X111259Y177615D02*
X116258D01*
Y170117D01*
X111259D01*
X116258Y173866D02*
X113759D01*
X108760Y170117D02*
Y177615D01*
X105011D01*
X103762Y176365D01*
Y173866D01*
X105011Y172616D01*
X108760D01*
X106261D02*
X103762Y170117D01*
X164992Y156800D02*
Y161798D01*
X162493Y164298D01*
X159994Y161798D01*
Y156800D01*
Y160549D01*
X164992D01*
X157494Y164298D02*
Y156800D01*
X153746D01*
X152496Y158050D01*
Y163048D01*
X153746Y164298D01*
X157494D01*
X149997Y156800D02*
Y161798D01*
X147498Y164298D01*
X144998Y161798D01*
Y156800D01*
Y160549D01*
X149997D01*
X142499Y156800D02*
Y164298D01*
X138750D01*
X137501Y163048D01*
Y160549D01*
X138750Y159299D01*
X142499D01*
X135002Y164298D02*
X130003D01*
X132502D01*
Y156800D01*
X122506Y164298D02*
X127504D01*
Y156800D01*
X122506D01*
X127504Y160549D02*
X125005D01*
X120006Y156800D02*
Y164298D01*
X116258D01*
X115008Y163048D01*
Y160549D01*
X116258Y159299D01*
X120006D01*
X117507D02*
X115008Y156800D01*
M02*
