G04*
G04 #@! TF.GenerationSoftware,Altium Limited,Altium Designer,19.0.15 (446)*
G04*
G04 Layer_Physical_Order=1*
G04 Layer_Color=196*
%FSLAX25Y25*%
%MOIN*%
G70*
G01*
G75*
%ADD13C,0.01500*%
%ADD24C,0.04724*%
%ADD25C,0.02500*%
%ADD26C,0.17323*%
%ADD27C,0.13780*%
%ADD28R,0.13780X0.13780*%
%ADD29C,0.06000*%
%ADD30C,0.06400*%
%ADD31R,0.06400X0.06400*%
%ADD32C,0.05700*%
%ADD33C,0.02362*%
D13*
X84685Y68000D02*
X112472Y95787D01*
X18000Y68000D02*
X84685D01*
X17000Y108000D02*
X41205D01*
X53417Y95787D01*
X12000Y113000D02*
X17000Y108000D01*
X5000Y71000D02*
Y136000D01*
X12000Y143000D01*
X5000Y71000D02*
X18000Y58000D01*
D24*
X275638Y20000D02*
G03*
X275638Y20000I-10638J0D01*
G01*
X30638Y165000D02*
G03*
X30638Y165000I-10638J0D01*
G01*
Y20000D02*
G03*
X30638Y20000I-10638J0D01*
G01*
X275638Y165000D02*
G03*
X275638Y165000I-10638J0D01*
G01*
D25*
X82945Y145000D02*
X99945Y128000D01*
X175000D01*
X197000Y106000D01*
X251000D01*
X258000Y99000D01*
X201000Y116000D02*
X251000D01*
X172000Y145000D02*
X201000Y116000D01*
X142000Y145000D02*
X172000D01*
X251000Y116000D02*
X258000Y109000D01*
X53417Y95787D02*
X65630Y108000D01*
X128000D01*
X151000Y85000D01*
X254000D01*
X258000Y89000D01*
X129260Y79000D02*
X258000D01*
X112472Y95787D02*
X129260Y79000D01*
X201055Y145000D02*
X217055Y129000D01*
X258000D01*
X194213Y95787D02*
X230583D01*
X177000Y113000D02*
X194213Y95787D01*
X25000Y113000D02*
X177000D01*
D26*
X265000Y20000D02*
D03*
X20000Y165000D02*
D03*
Y20000D02*
D03*
X265000Y165000D02*
D03*
D27*
X230583Y95787D02*
D03*
X201055Y145000D02*
D03*
X171528Y95787D02*
D03*
X142000Y145000D02*
D03*
X112472Y95787D02*
D03*
X82945Y145000D02*
D03*
D28*
X53417Y95787D02*
D03*
D29*
X18000Y101000D02*
D03*
Y91000D02*
D03*
Y68000D02*
D03*
Y58000D02*
D03*
D30*
X258000Y139000D02*
D03*
Y129000D02*
D03*
Y119000D02*
D03*
Y109000D02*
D03*
Y89000D02*
D03*
Y99000D02*
D03*
D31*
Y79000D02*
D03*
D32*
X25000Y113000D02*
D03*
Y143000D02*
D03*
X12000Y113000D02*
D03*
Y143000D02*
D03*
D33*
X256339Y20000D02*
D03*
X258875Y13875D02*
D03*
X265000Y11339D02*
D03*
X271125Y13875D02*
D03*
X273661Y20000D02*
D03*
X271125Y26125D02*
D03*
X265000Y28661D02*
D03*
X258875Y26125D02*
D03*
X26125Y158876D02*
D03*
X20000Y156339D02*
D03*
X13875Y158876D02*
D03*
X11339Y165000D02*
D03*
X13875Y171124D02*
D03*
X20000Y173661D02*
D03*
X26125Y171124D02*
D03*
X28661Y165000D02*
D03*
X20000Y28661D02*
D03*
X13875Y26125D02*
D03*
X11339Y20000D02*
D03*
X13875Y13875D02*
D03*
X20000Y11339D02*
D03*
X26125Y13875D02*
D03*
X28661Y20000D02*
D03*
X26125Y26125D02*
D03*
X271125Y171124D02*
D03*
X273661Y165000D02*
D03*
X271125Y158876D02*
D03*
X265000Y156339D02*
D03*
X258875Y158876D02*
D03*
X256339Y165000D02*
D03*
X258875Y171124D02*
D03*
X265000Y173661D02*
D03*
M02*
