G04*
G04 #@! TF.GenerationSoftware,Altium Limited,Altium Designer,19.0.15 (446)*
G04*
G04 Layer_Color=65535*
%FSLAX25Y25*%
%MOIN*%
G70*
G01*
G75*
%ADD10C,0.01000*%
%ADD11C,0.01772*%
%ADD12C,0.00787*%
%ADD13C,0.01500*%
%ADD14C,0.00700*%
D10*
X12993Y104996D02*
G03*
X23007Y104996I5007J-8996D01*
G01*
X12993Y71996D02*
G03*
X23007Y71996I5007J-8996D01*
G01*
X13000Y105000D02*
X23000D01*
X13000Y72000D02*
X23000D01*
X266000Y106894D02*
Y112392D01*
X268749D01*
X269666Y111475D01*
Y109643D01*
X268749Y108726D01*
X266000D01*
X267833D02*
X269666Y106894D01*
X271498D02*
Y112392D01*
X273331Y110559D01*
X275164Y112392D01*
Y106894D01*
X276996Y112392D02*
X280662D01*
X278829D01*
Y106894D01*
X266833Y76287D02*
Y81786D01*
X270498Y76287D01*
Y81786D01*
X275080D02*
X273248D01*
X272331Y80869D01*
Y77204D01*
X273248Y76287D01*
X275080D01*
X275997Y77204D01*
Y80869D01*
X275080Y81786D01*
X269666Y91071D02*
X268749Y91988D01*
X266916D01*
X266000Y91071D01*
Y87406D01*
X266916Y86489D01*
X268749D01*
X269666Y87406D01*
X274247Y91988D02*
X272415D01*
X271498Y91071D01*
Y87406D01*
X272415Y86489D01*
X274247D01*
X275164Y87406D01*
Y91071D01*
X274247Y91988D01*
X276996Y86489D02*
Y91988D01*
X278829Y90155D01*
X280662Y91988D01*
Y86489D01*
X266833Y127298D02*
Y130963D01*
X268666Y132796D01*
X270498Y130963D01*
Y127298D01*
Y130047D01*
X266833D01*
X275997Y131880D02*
X275080Y132796D01*
X273248D01*
X272331Y131880D01*
Y128214D01*
X273248Y127298D01*
X275080D01*
X275997Y128214D01*
X266833Y137500D02*
Y141165D01*
X268666Y142998D01*
X270498Y141165D01*
Y137500D01*
Y140249D01*
X266833D01*
X275997Y142082D02*
X275080Y142998D01*
X273248D01*
X272331Y142082D01*
Y138416D01*
X273248Y137500D01*
X275080D01*
X275997Y138416D01*
X266000Y117096D02*
Y122594D01*
X268749D01*
X269666Y121677D01*
Y119845D01*
X268749Y118928D01*
X266000D01*
X267833D02*
X269666Y117096D01*
X271498D02*
Y122594D01*
X273331Y120761D01*
X275164Y122594D01*
Y117096D01*
X276996Y122594D02*
X280662D01*
X278829D01*
Y117096D01*
X266833Y96691D02*
Y102190D01*
X270498Y96691D01*
Y102190D01*
X275997Y101273D02*
X275080Y102190D01*
X273248D01*
X272331Y101273D01*
Y97608D01*
X273248Y96691D01*
X275080D01*
X275997Y97608D01*
X6000Y78000D02*
Y80666D01*
X7333Y81999D01*
X8666Y80666D01*
Y78000D01*
Y79999D01*
X6000D01*
X12664Y81332D02*
X11998Y81999D01*
X10665D01*
X9999Y81332D01*
Y78666D01*
X10665Y78000D01*
X11998D01*
X12664Y78666D01*
X17996Y78000D02*
Y81999D01*
X19996D01*
X20662Y81332D01*
Y79999D01*
X19996Y79333D01*
X17996D01*
X21995Y81999D02*
Y78000D01*
X23328Y79333D01*
X24661Y78000D01*
Y81999D01*
X25993Y78000D02*
Y81999D01*
X27993D01*
X28659Y81332D01*
Y79999D01*
X27993Y79333D01*
X25993D01*
X27326D02*
X28659Y78000D01*
X8000Y45000D02*
Y48999D01*
X9999D01*
X10666Y48332D01*
Y46999D01*
X9999Y46333D01*
X8000D01*
X9333D02*
X10666Y45000D01*
X14664Y48999D02*
X11999D01*
Y45000D01*
X14664D01*
X11999Y46999D02*
X13332D01*
X15997Y48999D02*
Y45000D01*
X18663D01*
X19996D02*
Y47666D01*
X21329Y48999D01*
X22662Y47666D01*
Y45000D01*
Y46999D01*
X19996D01*
X23995Y48999D02*
Y48332D01*
X25328Y46999D01*
X26661Y48332D01*
Y48999D01*
X25328Y46999D02*
Y45000D01*
D11*
X36062Y72165D02*
X36279Y178071D01*
X248299Y72165D02*
Y178071D01*
X83732D02*
X201842D01*
X36279D02*
X83732D01*
X201842D02*
X248299D01*
X36062Y72165D02*
X248299Y72165D01*
D12*
X253000Y74000D02*
Y144000D01*
Y74000D02*
X263000D01*
Y144000D01*
X253000D02*
X263000D01*
X25000Y118000D02*
X28000D01*
Y138000D01*
X22000D02*
X28000D01*
X22000Y118000D02*
Y138000D01*
Y118000D02*
X25000D01*
Y138000D02*
Y138900D01*
Y117100D02*
Y118000D01*
X12000D02*
X15000D01*
Y138000D01*
X9000D02*
X15000D01*
X9000Y118000D02*
Y138000D01*
Y118000D02*
X12000D01*
Y138000D02*
Y138900D01*
Y117100D02*
Y118000D01*
D13*
X105730Y14165D02*
X104314Y12749D01*
Y9916D01*
X105730Y8500D01*
X111395D01*
X112811Y9916D01*
Y12749D01*
X111395Y14165D01*
X108562D01*
Y11332D01*
X112811Y16997D02*
X104314D01*
Y21246D01*
X105730Y22662D01*
X108562D01*
X109978Y21246D01*
Y16997D01*
Y19830D02*
X112811Y22662D01*
X104314Y31159D02*
Y25495D01*
X112811D01*
Y31159D01*
X108562Y25495D02*
Y28327D01*
X104314Y39657D02*
Y33992D01*
X112811D01*
Y39657D01*
X108562Y33992D02*
Y36824D01*
X112811Y42489D02*
X104314D01*
X112811Y48154D01*
X104314D01*
X123000Y37500D02*
X115503D01*
X123000Y42498D01*
X115503D01*
X123000Y44998D02*
X118002Y49996D01*
X116752Y57494D02*
X115503Y56244D01*
Y53745D01*
X116752Y52495D01*
X121751D01*
X123000Y53745D01*
Y56244D01*
X121751Y57494D01*
X197003Y11500D02*
X205500D01*
Y15749D01*
X204084Y17165D01*
X202668D01*
X201251Y15749D01*
Y11500D01*
Y15749D01*
X199835Y17165D01*
X198419D01*
X197003Y15749D01*
Y11500D01*
Y19997D02*
X205500D01*
Y25662D01*
Y28495D02*
X199835D01*
X197003Y31327D01*
X199835Y34159D01*
X205500D01*
X201251D01*
Y28495D01*
X198419Y42657D02*
X197003Y41240D01*
Y38408D01*
X198419Y36992D01*
X204084D01*
X205500Y38408D01*
Y41240D01*
X204084Y42657D01*
X197003Y45489D02*
X205500D01*
X202668D01*
X197003Y51154D01*
X201251Y46905D01*
X205500Y51154D01*
X226003Y11500D02*
X234500D01*
Y15749D01*
X233084Y17165D01*
X231668D01*
X230251Y15749D01*
Y11500D01*
Y15749D01*
X228835Y17165D01*
X227419D01*
X226003Y15749D01*
Y11500D01*
Y19997D02*
X234500D01*
Y25662D01*
Y28495D02*
X228835D01*
X226003Y31327D01*
X228835Y34159D01*
X234500D01*
X230251D01*
Y28495D01*
X227419Y42657D02*
X226003Y41240D01*
Y38408D01*
X227419Y36992D01*
X233084D01*
X234500Y38408D01*
Y41240D01*
X233084Y42657D01*
X226003Y45489D02*
X234500D01*
X231668D01*
X226003Y51154D01*
X230251Y46905D01*
X234500Y51154D01*
X176500Y11500D02*
X168003D01*
Y15749D01*
X169419Y17165D01*
X172251D01*
X173668Y15749D01*
Y11500D01*
X168003Y19997D02*
X175084D01*
X176500Y21414D01*
Y24246D01*
X175084Y25662D01*
X168003D01*
X176500Y28495D02*
X168003D01*
Y32743D01*
X169419Y34159D01*
X172251D01*
X173668Y32743D01*
Y28495D01*
Y31327D02*
X176500Y34159D01*
Y36992D02*
X168003D01*
Y41240D01*
X169419Y42657D01*
X172251D01*
X173668Y41240D01*
Y36992D01*
X168003Y45489D02*
X176500D01*
Y51154D01*
X168003Y59651D02*
Y53986D01*
X176500D01*
Y59651D01*
X172251Y53986D02*
Y56819D01*
X146500Y11500D02*
X138003D01*
Y15749D01*
X139419Y17165D01*
X142251D01*
X143668Y15749D01*
Y11500D01*
X138003Y19997D02*
X145084D01*
X146500Y21414D01*
Y24246D01*
X145084Y25662D01*
X138003D01*
X146500Y28495D02*
X138003D01*
Y32743D01*
X139419Y34159D01*
X142251D01*
X143668Y32743D01*
Y28495D01*
Y31327D02*
X146500Y34159D01*
Y36992D02*
X138003D01*
Y41240D01*
X139419Y42657D01*
X142251D01*
X143668Y41240D01*
Y36992D01*
X138003Y45489D02*
X146500D01*
Y51154D01*
X138003Y59651D02*
Y53986D01*
X146500D01*
Y59651D01*
X142251Y53986D02*
Y56819D01*
X72948Y8500D02*
X74364D01*
X77196Y11332D01*
X74364Y14165D01*
X72948D01*
X77196Y11332D02*
X81445D01*
X72948Y22662D02*
Y16997D01*
X81445D01*
Y22662D01*
X77196Y16997D02*
Y19830D01*
X72948Y25495D02*
X81445D01*
Y31159D01*
X72948Y33992D02*
X81445D01*
Y39657D01*
X72948Y46738D02*
Y43905D01*
X74364Y42489D01*
X80029D01*
X81445Y43905D01*
Y46738D01*
X80029Y48154D01*
X74364D01*
X72948Y46738D01*
Y50986D02*
X81445D01*
X78613Y53819D01*
X81445Y56651D01*
X72948D01*
X43003Y8500D02*
X51500D01*
Y12749D01*
X50084Y14165D01*
X48668D01*
X47251Y12749D01*
Y8500D01*
Y12749D01*
X45835Y14165D01*
X44419D01*
X43003Y12749D01*
Y8500D01*
X51500Y16997D02*
X43003D01*
Y21246D01*
X44419Y22662D01*
X47251D01*
X48668Y21246D01*
Y16997D01*
Y19830D02*
X51500Y22662D01*
X43003Y29743D02*
Y26911D01*
X44419Y25495D01*
X50084D01*
X51500Y26911D01*
Y29743D01*
X50084Y31159D01*
X44419D01*
X43003Y29743D01*
Y33992D02*
X51500D01*
X48668Y36824D01*
X51500Y39657D01*
X43003D01*
X51500Y42489D02*
X43003D01*
X51500Y48154D01*
X43003D01*
X56752Y42498D02*
X55503Y41249D01*
Y38750D01*
X56752Y37500D01*
X61751D01*
X63000Y38750D01*
Y41249D01*
X61751Y42498D01*
X55503Y48746D02*
Y46247D01*
X56752Y44998D01*
X61751D01*
X63000Y46247D01*
Y48746D01*
X61751Y49996D01*
X56752D01*
X55503Y48746D01*
X63000Y52495D02*
X55503D01*
X58002Y54994D01*
X55503Y57494D01*
X63000D01*
X93000Y37500D02*
X85503D01*
X93000Y42498D01*
X85503D01*
X93000Y44998D02*
X88002Y49996D01*
X85503Y56244D02*
Y53745D01*
X86752Y52495D01*
X91751D01*
X93000Y53745D01*
Y56244D01*
X91751Y57494D01*
X86752D01*
X85503Y56244D01*
D14*
X8000Y124000D02*
X4001D01*
Y125999D01*
X4668Y126666D01*
X6001D01*
X6667Y125999D01*
Y124000D01*
Y125333D02*
X8000Y126666D01*
Y130665D02*
Y127999D01*
X5334Y130665D01*
X4668D01*
X4001Y129998D01*
Y128665D01*
X4668Y127999D01*
X33000Y125000D02*
X29001D01*
Y126999D01*
X29668Y127666D01*
X31001D01*
X31667Y126999D01*
Y125000D01*
Y126333D02*
X33000Y127666D01*
Y128999D02*
Y130332D01*
Y129665D01*
X29001D01*
X29668Y128999D01*
M02*
